<svg version="1.1" xmlns="http://www.w3.org/2000/svg" style="display: block;" viewBox="0 0 2048 2048" width="512" height="512">
<path transform="translate(0,0)" fill="rgb(133,190,154)" d="M 1026.16 994.562 C 1036.07 994.76 1062.43 1004.77 1073.68 1007.85 L 1269.29 1062.25 L 1910.91 1241.6 L 1996.81 1265.58 C 2009.59 1269.07 2023.57 1271.42 2035.97 1275.91 C 2039.11 1277.05 2041.67 1278.58 2044.34 1280.57 C 2041.31 1292.93 2037.15 1299.62 2027.1 1307.48 C 2017.06 1315.32 2005.8 1322 1995.15 1328.98 A 3832.55 3832.55 0 0 0 1933.41 1369.48 L 1660.58 1549.01 L 1248.32 1820.34 A 16700.6 16700.6 0 0 1 1086.54 1926.49 C 1073.72 1934.74 1061.39 1943.92 1048.44 1951.91 C 1041.2 1956.37 1034.3 1959.28 1025.65 1958.99 C 1026.14 1932.55 1025.19 1905.95 1025.16 1879.5 L 1025.17 1697.33 L 1026.16 994.562 z"/>
<path transform="translate(0,0)" fill="rgb(179,224,194)" d="M 1024.83 994.798 L 1024.72 946.386 C 1024.71 936.33 1024 925.355 1025.76 915.449 C 1026.22 941.746 1024.7 968.338 1026.16 994.562 L 1025.17 1697.33 L 1025.16 1879.5 C 1025.19 1905.95 1026.14 1932.55 1025.65 1958.99 L 1021.91 1959.43 C 1018.07 1958.86 1014.23 1958.14 1010.54 1956.94 C 995.281 1951.96 980.971 1938.92 967.501 1930.05 L 884.487 1875.21 L 580.817 1675.29 A 47338.5 47338.5 0 0 1 143.702 1387.71 L 59.5679 1332.02 C 44.9532 1322.29 27.5835 1313.14 15.3623 1300.57 C 12.7448 1297.87 10.2327 1294.83 8.67468 1291.38 C 5.76462 1284.94 7.80471 1280.17 10.2242 1274.01 C 14.5299 1276.23 20.9883 1274.12 25.5156 1273.06 C 52.3575 1266.8 79.0405 1258.18 105.614 1250.74 L 271.612 1204.36 L 748.713 1071.92 L 933.248 1020.6 C 963.783 1012.07 994.136 1002.74 1024.83 994.798 z"/>
<path transform="translate(0,0)" fill="rgb(234,234,233)" d="M 10.2242 1274.01 C 18.0755 1251 37.6602 1224.83 50.4862 1203.79 C 86.5316 1144.65 123.85 1086.42 160.405 1027.62 L 566.366 372.622 L 684.308 179.75 C 696.637 159.637 721.436 113.758 736 99.4916 C 738.244 97.2938 739.242 96.4186 742.391 96.4235 C 745.484 97.9721 747.462 100.029 749.554 102.78 C 760.193 116.767 766.354 136.295 773.034 152.542 A 3110.29 3110.29 0 0 1 805.119 233.392 C 816.323 262.131 828.38 290.697 840.083 319.247 C 850.986 345.847 863.094 371.97 874.236 398.474 L 928.084 530.019 C 950.863 584.75 974.542 639.249 996.636 694.242 C 1001.82 707.147 1011.77 725.867 1012.56 739.3 C 1013.88 762.076 977.944 824.642 966.813 847.597 C 961.374 858.813 954.298 871.494 952.878 884.019 C 952.461 887.698 952.622 892.237 955.49 894.977 C 963.897 903.014 1007.58 900.87 1019.6 900.92 L 1024.06 901.219 C 1025.67 905.912 1026.05 910.499 1025.76 915.449 C 1024 925.355 1024.71 936.33 1024.72 946.386 L 1024.83 994.798 C 994.136 1002.74 963.783 1012.07 933.248 1020.6 L 748.713 1071.92 L 271.612 1204.36 L 105.614 1250.74 C 79.0405 1258.18 52.3575 1266.8 25.5156 1273.06 C 20.9883 1274.12 14.5299 1276.23 10.2242 1274.01 z"/>
<path transform="translate(0,0)" fill="rgb(41,49,50)" d="M 1197.25 349.417 C 1201.46 336.686 1206.96 324.242 1211.98 311.8 L 1246.83 227.319 A 4903.32 4903.32 0 0 1 1281.65 141.527 C 1286.34 130.144 1290.22 117.932 1295.7 106.956 C 1297.37 103.611 1299.58 100.422 1303.09 98.8316 C 1306.23 97.4122 1310.18 97.1663 1313.32 98.6458 C 1317.41 100.573 1320.3 104.524 1322.73 108.181 C 1332.91 123.516 1342.19 139.647 1351.88 155.308 L 1429.19 280.941 A 16538.4 16538.4 0 0 1 1544.93 467.558 C 1586.2 533.806 1628.06 599.834 1668.3 666.704 L 1707.09 729.955 C 1713.34 740.143 1720.2 750.212 1725.68 760.835 C 1731.11 766.993 1735.33 775.201 1739.7 782.209 L 1769.76 831.054 A 7512.26 7512.26 0 0 1 1816.31 906.701 C 1822.12 916.225 1829.68 926.022 1834.43 936.017 C 1843.99 949.739 1857.51 969.355 1864.71 984.051 C 1872.5 995.636 1879.31 1008.05 1886.44 1020.06 A 3817.75 3817.75 0 0 1 1939.66 1106.03 C 1943.12 1111.27 1946.77 1116.43 1949.58 1122.06 C 1961.84 1138.59 1971.76 1157.45 1982.4 1175.09 C 1988.01 1184.39 1994.76 1193.53 1999.58 1203.19 C 2009.81 1215.92 2043.03 1266.38 2044.34 1280.57 C 2041.67 1278.58 2039.11 1277.05 2035.97 1275.91 C 2023.57 1271.42 2009.59 1269.07 1996.81 1265.58 L 1910.91 1241.6 L 1269.29 1062.25 L 1073.68 1007.85 C 1062.43 1004.77 1036.07 994.76 1026.16 994.562 C 1024.7 968.338 1026.22 941.746 1025.76 915.449 C 1026.05 910.499 1025.67 905.912 1024.06 901.219 C 1041.64 899.64 1076.33 904.31 1091.04 898.669 C 1093.95 897.521 1096.14 896.674 1097.94 893.932 C 1100.63 889.852 1099.76 884.482 1098.61 880.058 C 1094.14 862.942 1075.84 831.835 1067.5 815.147 C 1057.37 794.889 1048.44 773.841 1037.6 753.969 C 1036.52 751.99 1035.91 750.609 1033.88 749.421 C 1033.36 746.207 1033.09 743.607 1034.2 740.489 C 1038.04 729.719 1043.04 719.139 1047.39 708.551 L 1083.69 622.279 L 1112.18 553.478 C 1118.81 537.283 1125.11 520.655 1132.78 504.94 C 1139.5 486.54 1147.61 468.556 1155.09 450.452 A 9830.34 9830.34 0 0 1 1197.25 349.417 z"/>
<path transform="translate(0,0)" fill="rgb(24,33,35)" d="M 1949.58 1122.06 C 1961.84 1138.59 1971.76 1157.45 1982.4 1175.09 C 1988.01 1184.39 1994.76 1193.53 1999.58 1203.19 C 1989.17 1199.57 1954.67 1139.5 1949.79 1128.74 C 1948.61 1126.13 1948.71 1124.69 1949.58 1122.06 z"/>
<path transform="translate(0,0)" fill="rgb(24,33,35)" d="M 1132.78 504.94 C 1139.5 486.54 1147.61 468.556 1155.09 450.452 A 9830.34 9830.34 0 0 1 1197.25 349.417 C 1197.53 353.76 1196.91 357.293 1195.48 361.416 C 1192.58 369.761 1188.48 377.69 1185.1 385.846 L 1167.11 429.625 C 1162.55 440.61 1147.78 485.016 1142.05 491.44 C 1139.31 494.501 1138.2 495.418 1136.76 499.381 C 1136.2 500.933 1135.55 502.464 1134.95 504.003 L 1132.78 504.94 z"/>
</svg>